<svg width="19" height="18" viewBox="0 0 19 18" fill="none" xmlns="http://www.w3.org/2000/svg">
<path d="M18.2383 15.4107C18.1958 15.3424 18.1403 15.2831 18.075 15.2363C18.0096 15.1895 17.9356 15.156 17.8572 15.1379C17.7789 15.1197 17.6977 15.1172 17.6184 15.1304C17.5391 15.1437 17.4631 15.1725 17.395 15.2152C16.4644 15.7945 15.4157 16.1579 14.3262 16.2786C13.2367 16.3992 12.1339 16.2741 11.0991 15.9123C10.0644 15.5506 9.12382 14.9615 8.34674 14.1883C7.56966 13.4151 6.9758 12.4776 6.60884 11.4446H13.765C13.927 11.4446 14.0825 11.3802 14.1971 11.2656C14.3117 11.151 14.3761 10.9956 14.3761 10.8335C14.3761 10.6714 14.3117 10.516 14.1971 10.4014C14.0825 10.2868 13.927 10.2224 13.765 10.2224H6.29107C6.14385 9.41423 6.14385 8.58611 6.29107 7.77795H13.765C13.927 7.77795 14.0825 7.71356 14.1971 7.59896C14.3117 7.48435 14.3761 7.32891 14.3761 7.16684C14.3761 7.00476 14.3117 6.84932 14.1971 6.73471C14.0825 6.62011 13.927 6.55572 13.765 6.55572H6.60884C6.97464 5.52478 7.56645 4.58874 8.34091 3.81617C9.11537 3.0436 10.0529 2.45408 11.0847 2.0908C12.1165 1.72752 13.2165 1.59969 14.3042 1.71666C15.3918 1.83364 16.4395 2.19246 17.3705 2.76684C17.5083 2.85274 17.6745 2.88039 17.8327 2.84372C17.9908 2.80704 18.1279 2.70905 18.2138 2.57128C18.2997 2.43352 18.3274 2.26727 18.2907 2.10911C18.2541 1.95096 18.1561 1.81385 18.0183 1.72795C16.901 1.03678 15.6396 0.612191 14.3318 0.487109C13.024 0.362026 11.705 0.539806 10.4769 1.00667C9.24892 1.47353 8.14491 2.21692 7.2505 3.17923C6.3561 4.14153 5.69532 5.29689 5.3194 6.55572H1.16385C1.00177 6.55572 0.84633 6.62011 0.731725 6.73471C0.617119 6.84932 0.552734 7.00476 0.552734 7.16684C0.552734 7.32891 0.617119 7.48435 0.731725 7.59896C0.84633 7.71356 1.00177 7.77795 1.16385 7.77795H5.05662C4.99484 8.18249 4.96216 8.59095 4.95885 9.00017C4.96216 9.40939 4.99484 9.81785 5.05662 10.2224H1.16385C1.00177 10.2224 0.84633 10.2868 0.731725 10.4014C0.617119 10.516 0.552734 10.6714 0.552734 10.8335C0.552734 10.9956 0.617119 11.151 0.731725 11.2656C0.84633 11.3802 1.00177 11.4446 1.16385 11.4446H5.3194C5.69611 12.7064 6.35901 13.8642 7.25647 14.8279C8.15392 15.7916 9.26171 16.535 10.4936 17.0005C11.7254 17.4659 13.0481 17.6407 14.3585 17.5112C15.669 17.3817 16.9319 16.9515 18.0488 16.2541C18.1167 16.2111 18.1754 16.1553 18.2216 16.0896C18.2678 16.024 18.3007 15.9499 18.3183 15.8716C18.3358 15.7933 18.3378 15.7123 18.3241 15.6332C18.3104 15.5541 18.2812 15.4785 18.2383 15.4107Z" fill="black"/>
</svg>
