<svg width="14" height="18" viewBox="0 0 14 18" fill="none" xmlns="http://www.w3.org/2000/svg">
<path d="M13.4633 10.0933H4.71667C5.34138 9.8094 6.01822 9.59576 6.71702 9.3779C7.98138 8.98397 9.28262 8.57575 10.3411 7.686H13.4633C13.7165 7.686 13.9216 7.48083 13.9216 7.22767C13.9216 6.97451 13.7165 6.76934 13.4633 6.76934H11.1646C11.7073 5.91932 11.8413 4.87679 11.5129 3.81273C11.0273 2.23936 9.63872 0.924156 8.13589 0.614423C6.74066 0.326532 5.18501 0.64092 3.97651 1.45482C2.91948 2.16667 2.21891 3.2015 2.00353 4.36917C1.9577 4.61803 2.12223 4.85723 2.37127 4.90306C2.61978 4.94746 2.85915 4.78454 2.90516 4.53532C3.07524 3.61221 3.6376 2.78828 4.48856 2.21537C5.49689 1.5361 6.79007 1.27184 7.95112 1.51247C9.141 1.75739 10.2457 2.81478 10.637 4.08307C10.8139 4.65599 10.9768 5.75492 10.0827 6.67874C10.0513 6.71124 10.0164 6.73809 9.98424 6.76934H0.53597C0.282813 6.76934 0.0776367 6.97451 0.0776367 7.22767C0.0776367 7.48083 0.282813 7.686 0.53597 7.686H8.65317C7.97256 8.02176 7.22197 8.26031 6.44435 8.50277C5.22975 8.88145 3.97969 9.27359 2.93998 10.0933H0.53597C0.282813 10.0933 0.0776367 10.2985 0.0776367 10.5517C0.0776367 10.8048 0.282813 11.01 0.53597 11.01H2.07403C1.34472 12.1398 1.32463 13.7014 2.08481 15.0505C3.06862 16.7961 4.97912 17.4875 6.81245 17.4875C7.44982 17.4875 8.07788 17.4041 8.65438 17.2523C11.0692 16.616 12.5667 14.9248 12.5627 12.839C12.5624 12.5859 12.3572 12.3814 12.1044 12.3814C12.1041 12.3814 12.1037 12.3814 12.1037 12.3814C11.8505 12.3818 11.6457 12.5877 11.6461 12.8405C11.65 14.8124 9.98247 15.9543 8.42091 16.3657C6.45509 16.8831 3.92191 16.4434 2.88332 14.6007C2.3147 13.5913 2.16592 12.0624 3.1832 11.0913C3.21366 11.0622 3.24703 11.038 3.27811 11.01H13.4633C13.7165 11.01 13.9216 10.8048 13.9216 10.5517C13.9216 10.2985 13.7165 10.0933 13.4633 10.0933Z" fill="#1D1C1A"/>
</svg>
